<svg xmlns="http://www.w3.org/2000/svg" viewBox="0 0 600 600"><path fill="#C99499" d="M544.37,300.00 C542.07,352.88 515.48,410.94 482.14,452.83 C448.80,494.72 395.29,541.12 344.32,551.35 C293.35,561.58 219.11,543.21 176.33,514.20 C133.56,485.18 104.83,426.73 87.67,377.28 C70.52,327.83 57.19,263.63 73.39,217.52 C89.60,171.42 140.03,127.17 184.90,100.64 C229.77,74.11 290.77,52.51 342.61,58.34 C394.45,64.16 462.32,95.31 495.95,135.58 C529.57,175.86 546.67,247.12 544.37,300.00Z"/><path fill="#722F37" d="M465.85,282.00 C464.47,316.34 434.87,355.72 408.89,380.89 C382.92,406.07 342.86,433.14 310.00,433.04 C277.14,432.93 234.47,405.43 211.74,380.26 C189.01,355.09 175.92,317.07 173.60,282.00 C171.29,246.93 175.11,193.65 197.85,169.85 C220.58,146.05 273.45,138.36 310.00,139.19 C346.55,140.02 391.18,151.05 417.15,174.85 C443.12,198.65 467.22,247.66 465.85,282.00Z"/></svg>
