<svg id="visual" viewBox="0 0 900 450" width="900" height="450" preserveAspectRatio="none" xmlns="http://www.w3.org/2000/svg" version="1.1"><g transform="translate(900, 450)"><path d="M-405 0C-378.2 -22.4 -351.3 -44.9 -340.3 -67.7C-329.3 -90.5 -334.1 -113.8 -330.7 -137C-327.3 -160.2 -315.7 -183.5 -298.5 -199.4C-281.3 -215.4 -258.4 -224 -244.7 -244.7C-230.9 -265.3 -226.2 -298 -209.4 -313.5C-192.7 -328.9 -164 -327.2 -141.2 -340.9C-118.4 -354.7 -101.6 -383.9 -79 -397.2C-56.5 -410.5 -28.2 -407.7 0 -405L0 0Z" fill="#9A4A54"></path><path d="M-202.5 0C-189.1 -11.2 -175.7 -22.4 -170.2 -33.8C-164.7 -45.3 -167.1 -56.9 -165.4 -68.5C-163.7 -80.1 -157.9 -91.8 -149.2 -99.7C-140.6 -107.7 -129.2 -112 -122.3 -122.3C-115.4 -132.7 -113.1 -149 -104.7 -156.7C-96.4 -164.5 -82 -163.6 -70.6 -170.5C-59.2 -177.3 -50.8 -192 -39.5 -198.6C-28.2 -205.2 -14.1 -203.9 0 -202.5L0 0Z" fill="#722F37"></path></g></svg>
