<svg xmlns="http://www.w3.org/2000/svg" viewBox="106.2 75.6 416.8 450.6"><path fill="#CEB894" d="M483.04,300.00 C487.15,334.33 474.48,380.89 454.06,411.93 C433.63,442.97 394.11,480.53 360.51,486.24 C326.92,491.95 288.22,458.62 252.50,446.20 C216.78,433.79 162.77,436.11 146.19,411.75 C129.62,387.38 148.38,333.87 153.04,300.00 C157.69,266.13 157.36,232.33 174.12,208.55 C190.89,184.76 222.67,172.80 253.64,157.31 C284.60,141.82 330.61,107.50 359.91,115.62 C389.21,123.73 408.89,175.24 429.41,205.97 C449.94,236.71 478.94,265.67 483.04,300.00Z"/></svg>
