<svg id="visual" viewBox="0 0 900 450" width="900" height="450" preserveAspectRatio="none" xmlns="http://www.w3.org/2000/svg" xmlns:xlink="http://www.w3.org/1999/xlink" version="1.1"><defs><linearGradient id="grad1_0" x1="50%" y1="100%" x2="100%" y2="0%"><stop offset="10%" stop-color="#722F37" stop-opacity="1"></stop><stop offset="90%" stop-color="#722F37" stop-opacity="1"></stop></linearGradient></defs><defs><linearGradient id="grad1_1" x1="50%" y1="100%" x2="100%" y2="0%"><stop offset="10%" stop-color="#722F37" stop-opacity="1"></stop><stop offset="90%" stop-color="#f5f0e8" stop-opacity="1"></stop></linearGradient></defs><defs><linearGradient id="grad2_0" x1="0%" y1="100%" x2="50%" y2="0%"><stop offset="10%" stop-color="#722F37" stop-opacity="1"></stop><stop offset="90%" stop-color="#722F37" stop-opacity="1"></stop></linearGradient></defs><defs><linearGradient id="grad2_1" x1="0%" y1="100%" x2="50%" y2="0%"><stop offset="10%" stop-color="#f5f0e8" stop-opacity="1"></stop><stop offset="90%" stop-color="#722F37" stop-opacity="1"></stop></linearGradient></defs><g transform="translate(900, 450)"><path d="M-405 0C-378.2 -22.4 -351.3 -44.9 -340.3 -67.7C-329.3 -90.5 -334.1 -113.8 -330.7 -137C-327.3 -160.2 -315.7 -183.5 -298.5 -199.4C-281.3 -215.4 -258.4 -224 -244.7 -244.7C-230.9 -265.3 -226.2 -298 -209.4 -313.5C-192.7 -328.9 -164 -327.2 -141.2 -340.9C-118.4 -354.7 -101.6 -383.9 -79 -397.2C-56.5 -410.5 -28.2 -407.7 0 -405L0 0Z" fill="#9A4A54"></path><path d="M-202.5 0C-189.1 -11.2 -175.7 -22.4 -170.2 -33.8C-164.7 -45.3 -167.1 -56.9 -165.4 -68.5C-163.7 -80.1 -157.9 -91.8 -149.2 -99.7C-140.6 -107.7 -129.2 -112 -122.3 -122.3C-115.4 -132.7 -113.1 -149 -104.7 -156.7C-96.4 -164.5 -82 -163.6 -70.6 -170.5C-59.2 -177.3 -50.8 -192 -39.5 -198.6C-28.2 -205.2 -14.1 -203.9 0 -202.5L0 0Z" fill="#722F37"></path></g><g transform="translate(0, 0) scale(0.7)"><path d="M405 0C396.7 25.7 388.4 51.4 375.6 74.7C362.9 98 345.6 118.9 328.9 136.2C312.2 153.6 295.9 167.5 292.7 195.6C289.4 223.6 299.2 265.7 286.4 286.4C273.5 307 238 306.1 212.8 318.5C187.6 330.8 172.7 356.3 150.4 363.1C128.1 369.9 98.3 358 72 361.9C45.7 365.8 22.8 385.4 0 405L0 0Z" fill="#9A4A54"></path><path d="M202.5 0C198.4 12.9 194.2 25.7 187.8 37.4C181.4 49 172.8 59.4 164.5 68.1C156.1 76.8 148 83.8 146.3 97.8C144.7 111.8 149.6 132.9 143.2 143.2C136.8 153.5 119 153.1 106.4 159.2C93.8 165.4 86.4 178.1 75.2 181.5C64 185 49.1 179 36 181C22.8 182.9 11.4 192.7 0 202.5L0 0Z" fill="#722F37"></path></g></svg>