<svg id="visual" viewBox="0 0 900 450" width="900" height="450" preserveAspectRatio="none" xmlns="http://www.w3.org/2000/svg" version="1.1"><g transform="translate(0, 0) scale(0.7)"><path d="M405 0C396.7 25.7 388.4 51.4 375.6 74.7C362.9 98 345.6 118.9 328.9 136.2C312.2 153.6 295.9 167.5 292.7 195.6C289.4 223.6 299.2 265.7 286.4 286.4C273.5 307 238 306.1 212.8 318.5C187.6 330.8 172.7 356.3 150.4 363.1C128.1 369.9 98.3 358 72 361.9C45.7 365.8 22.8 385.4 0 405L0 0Z" fill="#9A4A54"></path><path d="M202.5 0C198.4 12.9 194.2 25.7 187.8 37.4C181.4 49 172.8 59.4 164.5 68.1C156.1 76.8 148 83.8 146.3 97.8C144.7 111.8 149.6 132.9 143.2 143.2C136.8 153.5 119 153.1 106.4 159.2C93.8 165.4 86.4 178.1 75.2 181.5C64 185 49.1 179 36 181C22.8 182.9 11.4 192.7 0 202.5L0 0Z" fill="#722F37"></path></g></svg>
